<?xml version="1.0" encoding="utf-8"?>
<!-- Generator: Adobe Illustrator 24.1.2, SVG Export Plug-In . SVG Version: 6.00 Build 0)  -->
<svg version="1.1" id="Layer_1" xmlns="http://www.w3.org/2000/svg" xmlns:xlink="http://www.w3.org/1999/xlink" x="0px" y="0px"
	 viewBox="0 0 283.5 283.5" style="enable-background:new 0 0 283.5 283.5;" xml:space="preserve">
<style type="text/css">
	.st0{fill:#FFFFFF;}
</style>
<path class="st0" d="M146.6,1.6c5.1,0.9,10.3,1.6,15.3,2.8c37.4,9.3,64.9,41.3,68.2,79.7c2.4,27.5-6.1,51.5-25.2,71.4
	c-18.7,19.6-34.6,41.2-46.7,65.5c-9.6,19.2-16.2,39.2-18,60.7c-0.1,0.6-0.3,1.2-0.1,1.7c-1.9-9.6-3.3-19.2-5.8-28.6
	c-6.6-24.8-18.4-47.1-33.5-67.6c-8.3-11.3-17.4-22.2-27-32.4C27.4,105.5,49.2,24.4,114.1,5.4c6.1-1.8,12.5-2.5,18.8-3.8
	C137.5,1.6,142,1.6,146.6,1.6z M139.7,128.7c20.1,0,36.4-16.3,36.3-36.4c0-19.9-16.3-36.2-36.3-36.2c-20.1,0-36.4,16.4-36.3,36.5
	C103.5,112.5,119.7,128.7,139.7,128.7z"/>
</svg>
