<?xml version="1.0" encoding="utf-8"?>
<!-- Generator: Adobe Illustrator 24.1.2, SVG Export Plug-In . SVG Version: 6.00 Build 0)  -->
<svg version="1.1" id="Layer_1" xmlns="http://www.w3.org/2000/svg" xmlns:xlink="http://www.w3.org/1999/xlink" x="0px" y="0px"
	 viewBox="0 0 283.5 283.5" style="enable-background:new 0 0 283.5 283.5;" xml:space="preserve">
<style type="text/css">
	.st0{fill:#FFFFFF;}
</style>
<path class="st0" d="M5.2,141C5.9,63.8,67.1,3.5,143.6,4.3c75,0.8,135,60.6,135.1,136.4c0.2,76.1-60.1,137-136.7,137
	C65.4,277.6,6,217,5.2,141z M142,268.6c70.7,0,127.3-57.4,127.5-127.1c0.2-69.1-55-126.4-124.7-127.9
	c-71-1.5-129.6,55.1-130.2,126.5C14.1,211.1,71.2,268.5,142,268.6z"/>
<path class="st0" d="M177.6,233c-11.1-0.1-20-2.7-28.6-6.1c-13.5-5.3-25.5-13-35.8-23.2c-13.9-13.6-26.9-27.9-37.8-44
	c-9-13.3-15.6-27.9-18-44c-2.8-19.8,1.8-37.5,15.1-52.6c4.1-4.6,8.3-9,13.8-11.9c1.8-0.9,3.7-1.7,5.6-2.1c4.3-1,8.3,0.1,11.3,3.3
	c8.2,8.8,15.3,18.4,19.5,29.8c1.7,4.6,2.7,9.4,1.4,14.4c-0.8,2.9-2.3,5.4-4.7,7.3c-4.1,3.4-8.2,6.7-12.4,10
	c-5.5,4.4-7.3,10-5.2,16.9c1.8,5.9,5.1,11,8.5,16.1c7.3,10.8,15.9,20.4,25.9,28.8c2.5,2.1,5,4.2,7.7,6c3.4,2.3,7.3,3.6,11.5,3.3
	c5-0.4,8.7-3.1,11.8-6.9c2.5-3.1,5.5-5.8,8.9-8c8.2-5.3,16-5.1,24,0.5c8.3,5.9,16.5,12.1,23.3,19.7c3.2,3.6,5.1,7.8,4,12.7
	c-0.4,1.7-1.2,3.5-2.4,4.9c-10,12.3-22.6,20.7-38.3,23.8C183.1,232.6,179.5,232.8,177.6,233z"/>
</svg>
